<svg width="290" height="31" viewBox="0 0 290 31" fill="none" xmlns="http://www.w3.org/2000/svg">
<g clip-path="url(#clip0_8_13083)">
<mask id="mask0_8_13083" style="mask-type:luminance" maskUnits="userSpaceOnUse" x="0" y="0" width="46" height="31">
<path d="M45.7895 0H0V30.8421H45.7895V0Z" fill="white"/>
</mask>
<g mask="url(#mask0_8_13083)">
<path d="M32.5608 10.5381L44.6442 30.0715H20.4775L32.5608 10.5381Z" fill="#CBCAFE"/>
<path d="M26.4504 12.3793L19.2695 0.770996L1.14453 30.071H15.5064L26.4504 12.3793Z" fill="#5765F7"/>
</g>
<path d="M57.1909 27.758V4.44133H61.1013L68.7299 19.921L76.3584 4.44133H80.2688V27.758H76.1981V13.8328L69.4991 27.758H67.9606L61.2616 13.8328V27.758H57.1909ZM89.8959 27.758V4.44133H94.2551V27.758H89.8959ZM104.188 27.758V4.44133H108.547V23.6452H118.483V27.758H104.188ZM126.337 27.758V4.44133H130.696V23.6452H140.632V27.758H126.337ZM148.486 27.758V4.44133H152.845V27.758H148.486ZM172.362 28.2437C170.054 28.2437 168.061 27.7364 166.384 26.7217C164.717 25.707 163.43 24.2875 162.522 22.4631C161.625 20.6388 161.176 18.5177 161.176 16.0996C161.176 13.6816 161.625 11.5605 162.522 9.73615C163.43 7.91184 164.717 6.49233 166.384 5.47762C168.061 4.46292 170.054 3.95557 172.362 3.95557C174.67 3.95557 176.657 4.46292 178.324 5.47762C180.001 6.49233 181.288 7.91184 182.186 9.73615C183.094 11.5605 183.549 13.6816 183.549 16.0996C183.549 18.5177 183.094 20.6388 182.186 22.4631C181.288 24.2875 180.001 25.707 178.324 26.7217C176.657 27.7364 174.67 28.2437 172.362 28.2437ZM172.362 24.0985C173.826 24.1201 175.044 23.8017 176.016 23.1432C176.988 22.4847 177.715 21.551 178.196 20.342C178.687 19.133 178.933 17.7189 178.933 16.0996C178.933 14.4804 178.687 13.0771 178.196 11.8897C177.715 10.7023 176.988 9.77933 176.016 9.12085C175.044 8.46237 173.826 8.12233 172.362 8.10075C170.898 8.07916 169.68 8.3976 168.708 9.05608C167.736 9.71456 167.003 10.6483 166.512 11.8573C166.031 13.0663 165.791 14.4804 165.791 16.0996C165.791 17.7189 166.031 19.1222 166.512 20.3096C167.003 21.497 167.736 22.42 168.708 23.0784C169.68 23.7369 170.898 24.077 172.362 24.0985ZM191.556 27.758V4.44133H195.979L206.011 19.9858V4.44133H210.435V27.758H206.011L195.979 12.2135V27.758H191.556ZM219.715 27.758V4.44133H234.779V8.55412H224.074V13.5413H232.856V17.6541H224.074V23.6452H234.779V27.758H219.715ZM243.427 27.758V4.44133H253.171C253.396 4.44133 253.695 4.45212 254.069 4.47371C254.454 4.48451 254.795 4.51689 255.095 4.57087C256.473 4.78676 257.601 5.24554 258.477 5.9472C259.364 6.64885 260.015 7.53402 260.432 8.6027C260.849 9.66058 261.056 10.8426 261.056 12.1488C261.056 14.1026 260.576 15.7758 259.614 17.1683C258.652 18.5501 257.146 19.4028 255.095 19.7267L253.171 19.8562H247.787V27.758H243.427ZM256.441 27.758L251.889 18.2694L256.377 17.395L261.377 27.758H256.441ZM247.787 15.7434H252.979C253.203 15.7434 253.449 15.7326 253.716 15.711C253.983 15.6894 254.229 15.6463 254.454 15.5815C255.041 15.4196 255.496 15.1497 255.817 14.7719C256.137 14.3833 256.355 13.9569 256.473 13.4927C256.601 13.0177 256.665 12.5698 256.665 12.1488C256.665 11.7278 256.601 11.2852 256.473 10.821C256.355 10.3461 256.137 9.91966 255.817 9.54184C255.496 9.15323 255.041 8.87797 254.454 8.71605C254.229 8.65128 253.983 8.6081 253.716 8.58651C253.449 8.56492 253.203 8.55412 252.979 8.55412H247.787V15.7434ZM268.106 27.758L275.158 4.44133H281.665L288.716 27.758H284.229L277.947 7.19399H278.78L272.594 27.758H268.106ZM272.337 22.9003V18.7875H284.517V22.9003H272.337Z" fill="#404040"/>
</g>
<defs>
<clipPath id="clip0_8_13083">
<rect width="290" height="30.8421" fill="white"/>
</clipPath>
</defs>
</svg>
